<?xml version="1.0" standalone="no"?>
<!DOCTYPE svg PUBLIC "-//W3C//DTD SVG 20010904//EN"
 "http://www.w3.org/TR/2001/REC-SVG-20010904/DTD/svg10.dtd">
<svg version="1.0" xmlns="http://www.w3.org/2000/svg"
 width="357.000000pt" height="357.000000pt" viewBox="0 0 357.000000 357.000000"
 preserveAspectRatio="xMidYMid meet">
<metadata>
Created by potrace 1.14, written by Peter Selinger 2001-2017
</metadata>
<g transform="translate(0.000000,357.000000) scale(0.100000,-0.100000)"
fill="#000000" stroke="none">
<path d="M1749 3503 l-24 -28 28 24 27 24 28 -24 27 -24 -24 28 c-14 15 -27
27 -31 27 -4 0 -17 -12 -31 -27z"/>
<path d="M1684 3448 l-29 -33 33 29 c30 28 37 36 29 36 -2 0 -16 -15 -33 -32z"/>
<path d="M1840 3477 c0 -2 15 -16 33 -33 l32 -29 -29 33 c-28 30 -36 37 -36
29z"/>
<path d="M1609 3383 l-34 -38 38 34 c34 33 42 41 34 41 -2 0 -19 -17 -38 -37z"/>
<path d="M1940 3385 c19 -19 36 -35 39 -35 3 0 -10 16 -29 35 -19 19 -36 35
-39 35 -3 0 10 -16 29 -35z"/>
<path d="M1515 3298 l-50 -53 53 50 c48 46 57 55 49 55 -1 0 -25 -24 -52 -52z"/>
<path d="M2035 3300 c27 -27 51 -50 54 -50 3 0 -17 23 -44 50 -27 28 -51 50
-54 50 -3 0 17 -22 44 -50z"/>
<path d="M1655 3153 c-371 -330 -756 -759 -966 -1078 l-94 -143 -113 -1 -113
-1 12 23 c6 12 7 18 1 12 -5 -5 -31 -49 -56 -97 l-47 -87 27 -53 c119 -236
391 -621 619 -876 198 -221 821 -817 855 -817 34 0 657 596 855 817 228 255
500 640 619 876 l27 53 -47 87 c-25 48 -51 92 -56 97 -6 6 -5 0 1 -12 l12 -23
-113 1 -113 1 -94 143 c-162 246 -376 501 -661 785 -165 166 -419 401 -431
400 -2 -1 -58 -49 -124 -107z m281 -954 c131 -48 233 -153 277 -281 l16 -48
-32 -24 c-100 -75 -282 -170 -462 -243 -123 -49 -313 -106 -326 -97 -16 10
-59 102 -74 161 -61 233 89 478 336 548 71 20 187 13 265 -16z m696 5 c266
-135 -682 -729 -1376 -863 -143 -28 -289 -28 -333 -1 -68 41 -49 113 57 220
58 57 177 148 278 211 l32 21 0 -55 c0 -55 -1 -57 -54 -107 -96 -90 -99 -148
-9 -169 200 -48 852 216 1090 442 129 122 106 181 -68 176 l-84 -3 -36 37 -36
36 76 20 c223 59 389 72 463 35z m-412 -561 c-84 -264 -371 -399 -619 -292
-28 12 -51 24 -51 28 0 3 59 27 130 54 146 53 322 133 455 205 50 26 92 47 93
46 2 -2 -1 -20 -8 -41z"/>
<path d="M1370 3163 l-85 -88 88 85 c81 79 92 90 84 90 -1 0 -41 -39 -87 -87z"/>
<path d="M2180 3165 c47 -47 87 -85 90 -85 2 0 -33 38 -80 85 -47 47 -87 85
-90 85 -2 0 33 -38 80 -85z"/>
<path d="M1117 2916 c-169 -179 -295 -324 -398 -456 -79 -101 -226 -304 -241
-334 -17 -35 5 -6 67 84 152 220 365 479 604 729 73 78 131 141 128 141 -3 0
-75 -74 -160 -164z"/>
<path d="M2415 2938 c249 -267 453 -515 600 -728 60 -87 93 -128 60 -75 -10
17 -54 81 -99 143 -157 222 -340 439 -573 678 l-118 121 130 -139z"/>
<path d="M454 2088 c-4 -7 -14 -24 -22 -38 -14 -24 -13 -24 3 -5 20 24 37 55
31 55 -3 0 -8 -6 -12 -12z"/>
<path d="M3099 2085 c5 -11 17 -29 26 -40 l16 -20 -10 20 c-5 11 -17 29 -26
40 l-16 20 10 -20z"/>
<path d="M400 2000 c-6 -11 -8 -20 -6 -20 3 0 10 9 16 20 6 11 8 20 6 20 -3 0
-10 -9 -16 -20z"/>
<path d="M3150 2000 c6 -11 13 -20 16 -20 2 0 0 9 -6 20 -6 11 -13 20 -16 20
-2 0 0 -9 6 -20z"/>
</g>
</svg>
